<?xml version="1.0" encoding="utf-8"?>
<!-- Generator: Adobe Illustrator 23.0.3, SVG Export Plug-In . SVG Version: 6.00 Build 0)  -->
<svg version="1.1" id="Layer_1" xmlns="http://www.w3.org/2000/svg" xmlns:xlink="http://www.w3.org/1999/xlink" x="0px" y="0px"
	 viewBox="0 0 286.01 225.1" style="enable-background:new 0 0 286.01 225.1;" xml:space="preserve">
<style type="text/css">
	.st0{fill:url(#SVGID_1_);}
	.st1{fill:url(#SVGID_2_);}
	.st2{fill:url(#SVGID_3_);}
	.st3{fill:url(#SVGID_4_);}
	.st4{fill:url(#SVGID_5_);}
	.st5{fill:url(#SVGID_6_);}
	.st6{fill:url(#SVGID_7_);}
	.st7{fill:url(#SVGID_8_);}
	.st8{fill:url(#SVGID_9_);}
	.st9{fill:url(#SVGID_10_);}
	.st10{fill:url(#SVGID_11_);}
	.st11{fill:url(#SVGID_12_);}
	.st12{fill:url(#SVGID_13_);}
	.st13{fill:url(#SVGID_14_);}
	.st14{fill:url(#SVGID_15_);}
	.st15{fill:url(#SVGID_16_);}
	.st16{fill:url(#SVGID_17_);}
	.st17{fill:url(#SVGID_18_);}
	.st18{fill:url(#SVGID_19_);}
	.st19{fill:url(#SVGID_20_);}
	.st20{fill:url(#SVGID_21_);}
	.st21{fill:url(#SVGID_22_);}
	.st22{fill:url(#SVGID_23_);}
	.st23{fill:url(#SVGID_24_);}
</style>
<g>
	<linearGradient id="SVGID_1_" gradientUnits="userSpaceOnUse" x1="3.2313" y1="164.5257" x2="372.345" y2="164.5257">
		<stop  offset="0" style="stop-color:#79C5CF"/>
		<stop  offset="0.0893" style="stop-color:#79C3CE"/>
		<stop  offset="0.171" style="stop-color:#77BBCB"/>
		<stop  offset="0.2499" style="stop-color:#74AFC5"/>
		<stop  offset="0.327" style="stop-color:#709EBD"/>
		<stop  offset="0.4029" style="stop-color:#6B89B2"/>
		<stop  offset="0.4777" style="stop-color:#6671A6"/>
		<stop  offset="0.5517" style="stop-color:#615599"/>
		<stop  offset="0.6234" style="stop-color:#5B318A"/>
		<stop  offset="0.6257" style="stop-color:#5B308A"/>
		<stop  offset="1" style="stop-color:#D21970"/>
	</linearGradient>
	<path class="st0" d="M113.82,162.56v9.28h-2.49v-8.69c0-2.09-1.3-3.55-3.2-3.55c-2.21,0.04-3.8,1.96-3.8,4.39v7.85h-2.49v-8.69
		c0-2.09-1.32-3.55-3.22-3.55c-2.21,0.04-3.78,1.96-3.78,4.39v7.85h-2.47v-14.62h2.47v2.32c1-1.42,2.63-2.3,4.66-2.32
		c2.05,0,3.7,1.17,4.41,3.05c0.94-1.88,2.74-3.03,5.08-3.05C111.8,157.21,113.82,159.39,113.82,162.56z"/>
	<linearGradient id="SVGID_2_" gradientUnits="userSpaceOnUse" x1="3.2313" y1="164.484" x2="372.345" y2="164.484">
		<stop  offset="0" style="stop-color:#79C5CF"/>
		<stop  offset="0.0893" style="stop-color:#79C3CE"/>
		<stop  offset="0.171" style="stop-color:#77BBCB"/>
		<stop  offset="0.2499" style="stop-color:#74AFC5"/>
		<stop  offset="0.327" style="stop-color:#709EBD"/>
		<stop  offset="0.4029" style="stop-color:#6B89B2"/>
		<stop  offset="0.4777" style="stop-color:#6671A6"/>
		<stop  offset="0.5517" style="stop-color:#615599"/>
		<stop  offset="0.6234" style="stop-color:#5B318A"/>
		<stop  offset="0.6257" style="stop-color:#5B308A"/>
		<stop  offset="1" style="stop-color:#D21970"/>
	</linearGradient>
	<path class="st1" d="M123.42,157.13c3.99,0,6.41,2.36,6.41,6.16v8.54h-2.44v-3.91h-7.85v3.91h-2.47v-8.54
		C117.06,159.49,119.49,157.13,123.42,157.13z M123.44,159.34c-2.44,0-3.93,1.5-3.91,3.95l-0.02,2.44h7.88v-2.44
		C127.36,160.85,125.9,159.34,123.44,159.34z"/>
	<linearGradient id="SVGID_3_" gradientUnits="userSpaceOnUse" x1="3.2313" y1="164.5257" x2="372.345" y2="164.5257">
		<stop  offset="0" style="stop-color:#79C5CF"/>
		<stop  offset="0.0893" style="stop-color:#79C3CE"/>
		<stop  offset="0.171" style="stop-color:#77BBCB"/>
		<stop  offset="0.2499" style="stop-color:#74AFC5"/>
		<stop  offset="0.327" style="stop-color:#709EBD"/>
		<stop  offset="0.4029" style="stop-color:#6B89B2"/>
		<stop  offset="0.4777" style="stop-color:#6671A6"/>
		<stop  offset="0.5517" style="stop-color:#615599"/>
		<stop  offset="0.6234" style="stop-color:#5B318A"/>
		<stop  offset="0.6257" style="stop-color:#5B308A"/>
		<stop  offset="1" style="stop-color:#D21970"/>
	</linearGradient>
	<path class="st2" d="M135.83,157.21v6.35h7.75v-6.35h2.47v14.62h-2.47v-6.06h-7.75v6.06h-2.47v-14.62H135.83z"/>
	<linearGradient id="SVGID_4_" gradientUnits="userSpaceOnUse" x1="3.2313" y1="164.5257" x2="372.345" y2="164.5257">
		<stop  offset="0" style="stop-color:#79C5CF"/>
		<stop  offset="0.0893" style="stop-color:#79C3CE"/>
		<stop  offset="0.171" style="stop-color:#77BBCB"/>
		<stop  offset="0.2499" style="stop-color:#74AFC5"/>
		<stop  offset="0.327" style="stop-color:#709EBD"/>
		<stop  offset="0.4029" style="stop-color:#6B89B2"/>
		<stop  offset="0.4777" style="stop-color:#6671A6"/>
		<stop  offset="0.5517" style="stop-color:#615599"/>
		<stop  offset="0.6234" style="stop-color:#5B318A"/>
		<stop  offset="0.6257" style="stop-color:#5B308A"/>
		<stop  offset="1" style="stop-color:#D21970"/>
	</linearGradient>
	<path class="st3" d="M187.08,157.21v14.62h-2.47v-2.38c-1.07,1.46-2.82,2.36-4.97,2.38c-2.97,0-5.1-2.17-5.1-5.35v-9.28h2.49v8.69
		c0,2.11,1.42,3.55,3.47,3.55c2.4-0.04,4.12-1.96,4.12-4.39v-7.86H187.08z"/>
	<linearGradient id="SVGID_5_" gradientUnits="userSpaceOnUse" x1="3.2313" y1="164.4735" x2="372.345" y2="164.4735">
		<stop  offset="0" style="stop-color:#79C5CF"/>
		<stop  offset="0.0893" style="stop-color:#79C3CE"/>
		<stop  offset="0.171" style="stop-color:#77BBCB"/>
		<stop  offset="0.2499" style="stop-color:#74AFC5"/>
		<stop  offset="0.327" style="stop-color:#709EBD"/>
		<stop  offset="0.4029" style="stop-color:#6B89B2"/>
		<stop  offset="0.4777" style="stop-color:#6671A6"/>
		<stop  offset="0.5517" style="stop-color:#615599"/>
		<stop  offset="0.6234" style="stop-color:#5B318A"/>
		<stop  offset="0.6257" style="stop-color:#5B308A"/>
		<stop  offset="1" style="stop-color:#D21970"/>
	</linearGradient>
	<path class="st4" d="M201.12,160.79c-1.21-0.65-2.65-1.09-4.12-1.25v12.3h-2.47v-12.3c-1.46,0.17-2.9,0.61-4.12,1.25l-0.86-2.15
		c1.8-0.98,3.99-1.53,6.18-1.53c2.21,0,4.39,0.54,6.23,1.55L201.12,160.79z"/>
	<g>
		<linearGradient id="SVGID_6_" gradientUnits="userSpaceOnUse" x1="3.2313" y1="164.5257" x2="372.345" y2="164.5257">
			<stop  offset="0" style="stop-color:#79C5CF"/>
			<stop  offset="0.0893" style="stop-color:#79C3CE"/>
			<stop  offset="0.171" style="stop-color:#77BBCB"/>
			<stop  offset="0.2499" style="stop-color:#74AFC5"/>
			<stop  offset="0.327" style="stop-color:#709EBD"/>
			<stop  offset="0.4029" style="stop-color:#6B89B2"/>
			<stop  offset="0.4777" style="stop-color:#6671A6"/>
			<stop  offset="0.5517" style="stop-color:#615599"/>
			<stop  offset="0.6234" style="stop-color:#5B318A"/>
			<stop  offset="0.6257" style="stop-color:#5B308A"/>
			<stop  offset="1" style="stop-color:#D21970"/>
		</linearGradient>
		<path class="st5" d="M171.32,162.56v9.28h-2.49v-8.69c0-2.09-1.3-3.55-3.2-3.55c-2.21,0.04-3.8,1.96-3.8,4.39v7.85h-2.49v-8.69
			c0-2.09-1.32-3.55-3.22-3.55c-2.21,0.04-3.78,1.96-3.78,4.39v7.85h-2.47v-14.62h2.47v2.32c1-1.42,2.63-2.3,4.66-2.32
			c2.05,0,3.7,1.17,4.41,3.05c0.94-1.88,2.74-3.03,5.08-3.05C169.3,157.21,171.32,159.39,171.32,162.56z"/>
		<g>
			<linearGradient id="SVGID_7_" gradientUnits="userSpaceOnUse" x1="3.2313" y1="164.4739" x2="372.345" y2="164.4739">
				<stop  offset="0" style="stop-color:#79C5CF"/>
				<stop  offset="0.0893" style="stop-color:#79C3CE"/>
				<stop  offset="0.171" style="stop-color:#77BBCB"/>
				<stop  offset="0.2499" style="stop-color:#74AFC5"/>
				<stop  offset="0.327" style="stop-color:#709EBD"/>
				<stop  offset="0.4029" style="stop-color:#6B89B2"/>
				<stop  offset="0.4777" style="stop-color:#6671A6"/>
				<stop  offset="0.5517" style="stop-color:#615599"/>
				<stop  offset="0.6234" style="stop-color:#5B318A"/>
				<stop  offset="0.6257" style="stop-color:#5B308A"/>
				<stop  offset="1" style="stop-color:#D21970"/>
			</linearGradient>
			<rect x="210.69" y="162.81" class="st6" width="50.84" height="3.33"/>
		</g>
		<g>
			<linearGradient id="SVGID_8_" gradientUnits="userSpaceOnUse" x1="3.2313" y1="164.4739" x2="372.345" y2="164.4739">
				<stop  offset="0" style="stop-color:#79C5CF"/>
				<stop  offset="0.0893" style="stop-color:#79C3CE"/>
				<stop  offset="0.171" style="stop-color:#77BBCB"/>
				<stop  offset="0.2499" style="stop-color:#74AFC5"/>
				<stop  offset="0.327" style="stop-color:#709EBD"/>
				<stop  offset="0.4029" style="stop-color:#6B89B2"/>
				<stop  offset="0.4777" style="stop-color:#6671A6"/>
				<stop  offset="0.5517" style="stop-color:#615599"/>
				<stop  offset="0.6234" style="stop-color:#5B318A"/>
				<stop  offset="0.6257" style="stop-color:#5B308A"/>
				<stop  offset="1" style="stop-color:#D21970"/>
			</linearGradient>
			<rect x="29.79" y="162.81" class="st7" width="50.84" height="3.33"/>
		</g>
		<g>
			<linearGradient id="SVGID_9_" gradientUnits="userSpaceOnUse" x1="3.2313" y1="90.4966" x2="372.345" y2="90.4966">
				<stop  offset="0" style="stop-color:#79C5CF"/>
				<stop  offset="0.0893" style="stop-color:#79C3CE"/>
				<stop  offset="0.171" style="stop-color:#77BBCB"/>
				<stop  offset="0.2499" style="stop-color:#74AFC5"/>
				<stop  offset="0.327" style="stop-color:#709EBD"/>
				<stop  offset="0.4029" style="stop-color:#6B89B2"/>
				<stop  offset="0.4777" style="stop-color:#6671A6"/>
				<stop  offset="0.5517" style="stop-color:#615599"/>
				<stop  offset="0.6234" style="stop-color:#5B318A"/>
				<stop  offset="0.6257" style="stop-color:#5B308A"/>
				<stop  offset="1" style="stop-color:#D21970"/>
			</linearGradient>
			<path class="st8" d="M104.16,79.98c-1.35-1.35-3.55-1.35-4.9,0l-2.45,2.45l2.45,2.45l17.15,17.15l4.9-4.9L104.16,79.98z"/>
			<linearGradient id="SVGID_10_" gradientUnits="userSpaceOnUse" x1="3.2313" y1="74.3578" x2="372.345" y2="74.3578">
				<stop  offset="0" style="stop-color:#79C5CF"/>
				<stop  offset="0.0893" style="stop-color:#79C3CE"/>
				<stop  offset="0.171" style="stop-color:#77BBCB"/>
				<stop  offset="0.2499" style="stop-color:#74AFC5"/>
				<stop  offset="0.327" style="stop-color:#709EBD"/>
				<stop  offset="0.4029" style="stop-color:#6B89B2"/>
				<stop  offset="0.4777" style="stop-color:#6671A6"/>
				<stop  offset="0.5517" style="stop-color:#615599"/>
				<stop  offset="0.6234" style="stop-color:#5B318A"/>
				<stop  offset="0.6257" style="stop-color:#5B308A"/>
				<stop  offset="1" style="stop-color:#D21970"/>
			</linearGradient>
			<path class="st9" d="M187.48,84.88c1.35,1.35,3.55,1.35,4.9,0l2.45-2.45l-19.6-19.6l-4.9,4.9L187.48,84.88z"/>
			<linearGradient id="SVGID_11_" gradientUnits="userSpaceOnUse" x1="3.2313" y1="45.669" x2="372.3536" y2="45.669">
				<stop  offset="0" style="stop-color:#79C5CF"/>
				<stop  offset="0.0893" style="stop-color:#79C3CE"/>
				<stop  offset="0.171" style="stop-color:#77BBCB"/>
				<stop  offset="0.2499" style="stop-color:#74AFC5"/>
				<stop  offset="0.327" style="stop-color:#709EBD"/>
				<stop  offset="0.4029" style="stop-color:#6B89B2"/>
				<stop  offset="0.4777" style="stop-color:#6671A6"/>
				<stop  offset="0.5517" style="stop-color:#615599"/>
				<stop  offset="0.6234" style="stop-color:#5B318A"/>
				<stop  offset="0.6257" style="stop-color:#5B308A"/>
				<stop  offset="1" style="stop-color:#D21970"/>
			</linearGradient>
			<path class="st10" d="M148.27,35.87L148.27,35.87l-2.45-2.45l-2.45,2.45l0,0l-17.15,17.15l4.9,4.9l17.15-17.15
				C149.62,39.41,149.62,37.22,148.27,35.87z"/>
			<linearGradient id="SVGID_12_" gradientUnits="userSpaceOnUse" x1="3.2313" y1="119.1855" x2="372.3536" y2="119.1855">
				<stop  offset="0" style="stop-color:#79C5CF"/>
				<stop  offset="0.0893" style="stop-color:#79C3CE"/>
				<stop  offset="0.171" style="stop-color:#77BBCB"/>
				<stop  offset="0.2499" style="stop-color:#74AFC5"/>
				<stop  offset="0.327" style="stop-color:#709EBD"/>
				<stop  offset="0.4029" style="stop-color:#6B89B2"/>
				<stop  offset="0.4777" style="stop-color:#6671A6"/>
				<stop  offset="0.5517" style="stop-color:#615599"/>
				<stop  offset="0.6234" style="stop-color:#5B318A"/>
				<stop  offset="0.6257" style="stop-color:#5B308A"/>
				<stop  offset="1" style="stop-color:#D21970"/>
			</linearGradient>
			<path class="st11" d="M143.37,128.99L143.37,128.99l2.45,2.45l2.45-2.45l0,0l17.15-17.15l-4.9-4.9l-17.15,17.15
				C142.02,125.44,142.02,127.63,143.37,128.99z"/>
			<linearGradient id="SVGID_13_" gradientUnits="userSpaceOnUse" x1="3.2313" y1="103.7644" x2="372.345" y2="103.7644">
				<stop  offset="0" style="stop-color:#79C5CF"/>
				<stop  offset="0.0893" style="stop-color:#79C3CE"/>
				<stop  offset="0.171" style="stop-color:#77BBCB"/>
				<stop  offset="0.2499" style="stop-color:#74AFC5"/>
				<stop  offset="0.327" style="stop-color:#709EBD"/>
				<stop  offset="0.4029" style="stop-color:#6B89B2"/>
				<stop  offset="0.4777" style="stop-color:#6671A6"/>
				<stop  offset="0.5517" style="stop-color:#615599"/>
				<stop  offset="0.6234" style="stop-color:#5B318A"/>
				<stop  offset="0.6257" style="stop-color:#5B308A"/>
				<stop  offset="1" style="stop-color:#D21970"/>
			</linearGradient>
			<path class="st12" d="M128.67,109.38L128.67,109.38l-2.45,2.45l2.45,2.45l0,0l0,0c1.35,1.35,3.55,1.35,4.9,0l17.15-17.15
				l-4.9-4.9L128.67,109.38L128.67,109.38z"/>
			<linearGradient id="SVGID_14_" gradientUnits="userSpaceOnUse" x1="3.2313" y1="75.0755" x2="372.3497" y2="75.0755">
				<stop  offset="0" style="stop-color:#79C5CF"/>
				<stop  offset="0.0893" style="stop-color:#79C3CE"/>
				<stop  offset="0.171" style="stop-color:#77BBCB"/>
				<stop  offset="0.2499" style="stop-color:#74AFC5"/>
				<stop  offset="0.327" style="stop-color:#709EBD"/>
				<stop  offset="0.4029" style="stop-color:#6B89B2"/>
				<stop  offset="0.4777" style="stop-color:#6671A6"/>
				<stop  offset="0.5517" style="stop-color:#615599"/>
				<stop  offset="0.6234" style="stop-color:#5B318A"/>
				<stop  offset="0.6257" style="stop-color:#5B308A"/>
				<stop  offset="1" style="stop-color:#D21970"/>
			</linearGradient>
			<path class="st13" d="M116.41,62.82l-2.45,2.45c-1.35,1.35-1.35,3.55,0,4.9l17.15,17.15l4.9-4.9L116.41,62.82z"/>
			<linearGradient id="SVGID_15_" gradientUnits="userSpaceOnUse" x1="3.2313" y1="82.4272" x2="372.345" y2="82.4272">
				<stop  offset="0" style="stop-color:#79C5CF"/>
				<stop  offset="0.0893" style="stop-color:#79C3CE"/>
				<stop  offset="0.171" style="stop-color:#77BBCB"/>
				<stop  offset="0.2499" style="stop-color:#74AFC5"/>
				<stop  offset="0.327" style="stop-color:#709EBD"/>
				<stop  offset="0.4029" style="stop-color:#6B89B2"/>
				<stop  offset="0.4777" style="stop-color:#6671A6"/>
				<stop  offset="0.5517" style="stop-color:#615599"/>
				<stop  offset="0.6234" style="stop-color:#5B318A"/>
				<stop  offset="0.6257" style="stop-color:#5B308A"/>
				<stop  offset="1" style="stop-color:#D21970"/>
			</linearGradient>
			<path class="st14" d="M118.86,45.67l4.9,4.9l22.05-22.05l4.9,4.9c2.71,2.71,2.71,7.1,0,9.8l-17.15,17.15l4.9,4.9l17.15-17.15
				c2.71-2.71,7.1-2.71,9.8,0l4.9,4.9l-24.51,24.51l-24.51-24.51l-4.9-4.9l-9.8,9.8c-2.93,2.93-4.26,6.85-4.02,10.69
				c-3.84-0.24-7.75,1.09-10.69,4.02l-9.8,9.8l4.9,4.9l22.05,22.05l4.9-4.9L91.91,82.43l4.9-4.9c2.71-2.71,7.1-2.71,9.8,0
				l17.15,17.15l4.9-4.9l-17.15-17.15c-2.71-2.71-2.71-7.1,0-9.8l4.9-4.9l24.51,24.51l-29.41,29.41l9.8,9.8
				c2.93,2.93,6.85,4.26,10.69,4.02c-0.24,3.84,1.09,7.75,4.02,10.69l9.8,9.8l26.96-26.96l-4.9-4.9l-22.05,22.05l-4.9-4.9
				c-2.71-2.71-2.71-7.1,0-9.8l17.15-17.15l-4.9-4.9l-17.15,17.15c-2.71,2.71-7.1,2.71-9.8,0l-4.9-4.9l24.51-24.51l29.41,29.41
				l4.9-4.9l4.9-4.9c2.93-2.93,4.26-6.85,4.02-10.69c3.84,0.24,7.75-1.09,10.69-4.02l4.9-4.9l4.9-4.9l-26.96-26.96l-4.9,4.9
				l22.05,22.05l-4.9,4.9c-2.71,2.71-7.1,2.71-9.8,0l-17.15-17.15l-4.9,4.9l17.15,17.15c2.71,2.71,2.71,7.1,0,9.8l-4.9,4.9
				l-24.51-24.51l29.41-29.41l-9.8-9.8c-2.93-2.93-6.85-4.26-10.69-4.02c0.24-3.84-1.09-7.75-4.02-10.69l-9.8-9.8L118.86,45.67z"/>
			<linearGradient id="SVGID_16_" gradientUnits="userSpaceOnUse" x1="3.2313" y1="61.09" x2="372.345" y2="61.09">
				<stop  offset="0" style="stop-color:#79C5CF"/>
				<stop  offset="0.0893" style="stop-color:#79C3CE"/>
				<stop  offset="0.171" style="stop-color:#77BBCB"/>
				<stop  offset="0.2499" style="stop-color:#74AFC5"/>
				<stop  offset="0.327" style="stop-color:#709EBD"/>
				<stop  offset="0.4029" style="stop-color:#6B89B2"/>
				<stop  offset="0.4777" style="stop-color:#6671A6"/>
				<stop  offset="0.5517" style="stop-color:#615599"/>
				<stop  offset="0.6234" style="stop-color:#5B318A"/>
				<stop  offset="0.6257" style="stop-color:#5B308A"/>
				<stop  offset="1" style="stop-color:#D21970"/>
			</linearGradient>
			<path class="st15" d="M165.42,53.02l-2.45-2.45l0,0l0,0c-1.35-1.35-3.55-1.35-4.9,0l-17.15,17.15l4.9,4.9l17.15-17.15
				L165.42,53.02z"/>
			<linearGradient id="SVGID_17_" gradientUnits="userSpaceOnUse" x1="3.2313" y1="89.7789" x2="372.3497" y2="89.7789">
				<stop  offset="0" style="stop-color:#79C5CF"/>
				<stop  offset="0.0893" style="stop-color:#79C3CE"/>
				<stop  offset="0.171" style="stop-color:#77BBCB"/>
				<stop  offset="0.2499" style="stop-color:#74AFC5"/>
				<stop  offset="0.327" style="stop-color:#709EBD"/>
				<stop  offset="0.4029" style="stop-color:#6B89B2"/>
				<stop  offset="0.4777" style="stop-color:#6671A6"/>
				<stop  offset="0.5517" style="stop-color:#615599"/>
				<stop  offset="0.6234" style="stop-color:#5B318A"/>
				<stop  offset="0.6257" style="stop-color:#5B308A"/>
				<stop  offset="1" style="stop-color:#D21970"/>
			</linearGradient>
			<path class="st16" d="M177.68,99.58c1.35-1.35,1.35-3.55,0-4.9l-17.15-17.15l-4.9,4.9l19.6,19.6L177.68,99.58z"/>
		</g>
		<g>
			<linearGradient id="SVGID_18_" gradientUnits="userSpaceOnUse" x1="3.2313" y1="195.6532" x2="372.345" y2="195.6532">
				<stop  offset="0" style="stop-color:#79C5CF"/>
				<stop  offset="0.0893" style="stop-color:#79C3CE"/>
				<stop  offset="0.171" style="stop-color:#77BBCB"/>
				<stop  offset="0.2499" style="stop-color:#74AFC5"/>
				<stop  offset="0.327" style="stop-color:#709EBD"/>
				<stop  offset="0.4029" style="stop-color:#6B89B2"/>
				<stop  offset="0.4777" style="stop-color:#6671A6"/>
				<stop  offset="0.5517" style="stop-color:#615599"/>
				<stop  offset="0.6234" style="stop-color:#5B318A"/>
				<stop  offset="0.6257" style="stop-color:#5B308A"/>
				<stop  offset="1" style="stop-color:#D21970"/>
			</linearGradient>
			<path class="st17" d="M28.77,198.84c0-6.54,4.38-12.92,14-12.92c8.31,0,13.51,5.56,13.51,12.2c0,7.62-5.17,13.45-13.74,13.45
				C32.89,211.57,28.77,204.63,28.77,198.84z M49.74,199.56c0-5.43-2.26-11.61-8.05-11.61c-3.01,0-6.38,1.67-6.38,9.42
				c0,6.18,2.58,12.1,8.21,12.1C45.55,209.48,49.74,208.59,49.74,199.56z M36.78,181.54c0-0.82,0.59-1.73,1.73-1.73
				c1.01,0,1.8,0.69,1.8,1.67c0,1.08-0.72,1.86-1.83,1.86C37.28,183.34,36.78,182.35,36.78,181.54z M44.67,181.54
				c0-0.75,0.65-1.8,1.8-1.8c1.01,0,1.77,0.69,1.77,1.73s-0.69,1.86-1.77,1.86C45.23,183.34,44.67,182.35,44.67,181.54z"/>
			<linearGradient id="SVGID_19_" gradientUnits="userSpaceOnUse" x1="3.2313" y1="198.6467" x2="372.345" y2="198.6467">
				<stop  offset="0" style="stop-color:#79C5CF"/>
				<stop  offset="0.0893" style="stop-color:#79C3CE"/>
				<stop  offset="0.171" style="stop-color:#77BBCB"/>
				<stop  offset="0.2499" style="stop-color:#74AFC5"/>
				<stop  offset="0.327" style="stop-color:#709EBD"/>
				<stop  offset="0.4029" style="stop-color:#6B89B2"/>
				<stop  offset="0.4777" style="stop-color:#6671A6"/>
				<stop  offset="0.5517" style="stop-color:#615599"/>
				<stop  offset="0.6234" style="stop-color:#5B318A"/>
				<stop  offset="0.6257" style="stop-color:#5B308A"/>
				<stop  offset="1" style="stop-color:#D21970"/>
			</linearGradient>
			<path class="st18" d="M82.95,208.63c3.83,0,5.23-0.69,5.79-2.36c0.16-0.43,0.26-0.75,0.33-1.08c0.1-0.39,0.2-0.52,0.39-0.52
				c0.2,0,0.29,0.16,0.29,0.69c0,0.92-0.56,3.83-0.92,4.94c-0.13,0.46-0.26,0.85-0.88,0.85c-5.46,0-10.93-0.16-18.52-0.16
				c-0.33,0-0.59-0.1-0.59-0.33c0-0.26,0.16-0.52,0.56-1.14c4.06-6.38,8.77-13.94,12.89-20.74h-5.56c-2.45,0-3.66,0.16-4.58,0.62
				c-0.92,0.46-1.5,1.44-1.86,2.72c-0.13,0.39-0.26,0.62-0.46,0.62c-0.23,0-0.26-0.16-0.26-0.59c0-0.62,0.52-4.12,0.69-5.37
				c0.07-0.46,0.2-0.62,0.36-0.62c0.26,0,0.62,0.2,1.34,0.23c3.11,0.13,4.68,0.1,6.38,0.1h10.83c0.33,0,0.49,0.1,0.49,0.33
				s-0.1,0.46-0.39,0.95c-4.22,7.13-8.74,14.49-12.73,20.87H82.95z"/>
			<linearGradient id="SVGID_20_" gradientUnits="userSpaceOnUse" x1="3.2313" y1="198.7449" x2="372.345" y2="198.7449">
				<stop  offset="0" style="stop-color:#79C5CF"/>
				<stop  offset="0.0893" style="stop-color:#79C3CE"/>
				<stop  offset="0.171" style="stop-color:#77BBCB"/>
				<stop  offset="0.2499" style="stop-color:#74AFC5"/>
				<stop  offset="0.327" style="stop-color:#709EBD"/>
				<stop  offset="0.4029" style="stop-color:#6B89B2"/>
				<stop  offset="0.4777" style="stop-color:#6671A6"/>
				<stop  offset="0.5517" style="stop-color:#615599"/>
				<stop  offset="0.6234" style="stop-color:#5B318A"/>
				<stop  offset="0.6257" style="stop-color:#5B308A"/>
				<stop  offset="1" style="stop-color:#D21970"/>
			</linearGradient>
			<path class="st19" d="M111.08,202.64c0-1.77-0.36-2.42-0.92-3.5c-1.21-2.22-4.45-7.62-5.56-9.29c-1.24-1.9-1.6-2.32-2.65-2.65
				c-0.2-0.07-0.59-0.13-0.85-0.16c-0.33-0.03-0.49-0.16-0.49-0.36c0-0.23,0.26-0.29,0.65-0.29c1.34,0,3.8,0.1,5.04,0.1
				c0.56,0,2.62-0.1,4.68-0.1c0.36,0,0.62,0.07,0.62,0.26c0,0.26-0.16,0.33-0.65,0.43c-0.88,0.1-1.01,0.43-1.01,0.69
				c0,0.23,0.1,0.52,0.33,0.95c0.52,0.95,4.61,8.21,5.14,9.19c2-3.76,3.76-7.03,4.38-8.34c0.33-0.69,0.52-1.24,0.52-1.67
				c0-0.36-0.2-0.65-1.18-0.82c-0.29-0.07-0.56-0.16-0.56-0.39c0-0.2,0.2-0.29,0.72-0.29c1.34,0,2.45,0.1,3.7,0.1
				c0.46,0,3.14-0.1,3.76-0.1c0.39,0,0.65,0.07,0.65,0.29c0,0.26-0.23,0.36-0.65,0.36c-0.43,0.03-0.88,0.13-1.28,0.26
				c-0.92,0.36-1.24,0.92-1.83,1.67c-1.11,1.37-5.79,9.39-6.25,10.76c-0.49,1.37-0.52,2.65-0.52,3.11v2.32c0,0.52,0,1.86,0.1,3.24
				c0.07,0.82,0.13,1.64,1.34,1.86c0.59,0.13,1.24,0.13,1.8,0.2c0.39,0.03,0.52,0.13,0.52,0.36c0,0.16-0.16,0.29-0.65,0.29
				c-2.36,0-5.07-0.1-6.15-0.1c-0.95,0-3.6,0.1-5.07,0.1c-0.46,0-0.65-0.13-0.65-0.36c0-0.16,0.2-0.29,0.59-0.29
				c0.52-0.07,0.85-0.07,1.15-0.16c0.85-0.23,1.05-0.82,1.11-1.77c0.1-1.37,0.13-2.85,0.13-3.37V202.64z"/>
			<linearGradient id="SVGID_21_" gradientUnits="userSpaceOnUse" x1="3.2313" y1="198.4832" x2="372.345" y2="198.4832">
				<stop  offset="0" style="stop-color:#79C5CF"/>
				<stop  offset="0.0893" style="stop-color:#79C3CE"/>
				<stop  offset="0.171" style="stop-color:#77BBCB"/>
				<stop  offset="0.2499" style="stop-color:#74AFC5"/>
				<stop  offset="0.327" style="stop-color:#709EBD"/>
				<stop  offset="0.4029" style="stop-color:#6B89B2"/>
				<stop  offset="0.4777" style="stop-color:#6671A6"/>
				<stop  offset="0.5517" style="stop-color:#615599"/>
				<stop  offset="0.6234" style="stop-color:#5B318A"/>
				<stop  offset="0.6257" style="stop-color:#5B308A"/>
				<stop  offset="1" style="stop-color:#D21970"/>
			</linearGradient>
			<path class="st20" d="M140.1,204.34c-0.16,0-0.23,0.07-0.29,0.23l-1.01,2.68c-0.33,0.85-0.52,1.7-0.52,2.09
				c0,0.62,0.29,0.92,0.98,0.98c0.36,0.07,0.88,0.1,1.14,0.13c0.49,0,0.59,0.16,0.59,0.33c0,0.26-0.26,0.33-0.69,0.33
				c-1.47,0-2.58-0.1-4.32-0.1c-0.36,0-2.52,0.1-4.16,0.1c-0.46,0-0.65-0.13-0.65-0.33c0-0.26,0.23-0.33,0.62-0.33
				c0.39-0.03,0.72-0.07,1.05-0.13c1.14-0.23,1.8-1.24,2.49-2.81l8.74-19.76c0.62-1.41,0.98-1.9,1.34-1.9
				c0.33,0,0.62,0.46,1.18,1.64c0.85,1.83,6.35,14.36,8.57,19.34c1.11,2.55,1.83,3.34,2.98,3.5c0.36,0.1,0.75,0.1,1.05,0.13
				c0.43,0,0.62,0.13,0.62,0.33c0,0.23-0.23,0.33-0.85,0.33c-3.21,0-6.94-0.07-9.03-0.1c-0.52,0-0.72-0.1-0.72-0.29
				c0-0.2,0.16-0.33,0.46-0.39c0.36-0.07,0.49-0.29,0.39-0.59l-2.19-5.2c-0.03-0.13-0.16-0.2-0.26-0.2H140.1z M146.64,201.72
				c0.2,0,0.2-0.1,0.16-0.16l-2.88-7c-0.1-0.23-0.16-0.16-0.23,0l-2.78,7c-0.03,0.1,0.03,0.16,0.13,0.16H146.64z"/>
			<linearGradient id="SVGID_22_" gradientUnits="userSpaceOnUse" x1="3.2313" y1="198.9739" x2="372.345" y2="198.9739">
				<stop  offset="0" style="stop-color:#79C5CF"/>
				<stop  offset="0.0893" style="stop-color:#79C3CE"/>
				<stop  offset="0.171" style="stop-color:#77BBCB"/>
				<stop  offset="0.2499" style="stop-color:#74AFC5"/>
				<stop  offset="0.327" style="stop-color:#709EBD"/>
				<stop  offset="0.4029" style="stop-color:#6B89B2"/>
				<stop  offset="0.4777" style="stop-color:#6671A6"/>
				<stop  offset="0.5517" style="stop-color:#615599"/>
				<stop  offset="0.6234" style="stop-color:#5B318A"/>
				<stop  offset="0.6257" style="stop-color:#5B308A"/>
				<stop  offset="1" style="stop-color:#D21970"/>
			</linearGradient>
			<path class="st21" d="M166.44,189.68c-0.92-2.03-1.28-2.32-2.39-2.55c-0.26-0.07-0.56-0.1-0.75-0.1
				c-0.36-0.07-0.52-0.2-0.52-0.36c0-0.23,0.26-0.29,0.69-0.29c1.77,0,3.66,0.1,4.97,0.1c1.15,0,2.91-0.1,5.46-0.1
				c0.49,0,0.75,0.13,0.75,0.33c0,0.2-0.2,0.33-0.49,0.33c-0.39,0.03-0.59,0.03-0.88,0.1c-0.85,0.13-0.98,0.49-0.98,0.82
				c0,0.43,0.2,1.08,0.75,2.49c1.54,3.99,3.6,8.87,5.07,12.69c1.34-3.01,4.74-11.03,5.82-14.1c0.16-0.36,0.26-0.79,0.26-1.08
				c0-0.43-0.2-0.65-0.78-0.75c-0.39-0.1-0.95-0.13-1.31-0.16c-0.42-0.03-0.59-0.13-0.59-0.33c0-0.2,0.16-0.33,0.72-0.33
				c2.16,0,3.76,0.1,4.25,0.1c0.49,0,2.62-0.1,3.63-0.1c0.49,0,0.72,0.1,0.72,0.33s-0.16,0.33-0.59,0.33
				c-0.39,0.03-0.92,0.03-1.44,0.29c-0.69,0.33-1.14,1.01-2.06,2.94c-1.31,2.81-2.49,5.46-4.35,9.62c-2.09,4.65-3.5,7.62-4.35,9.32
				c-0.95,1.93-1.28,2.36-1.7,2.36c-0.46,0-0.72-0.46-1.34-1.96L166.44,189.68z"/>
			<linearGradient id="SVGID_23_" gradientUnits="userSpaceOnUse" x1="3.2313" y1="198.9739" x2="372.345" y2="198.9739">
				<stop  offset="0" style="stop-color:#79C5CF"/>
				<stop  offset="0.0893" style="stop-color:#79C3CE"/>
				<stop  offset="0.171" style="stop-color:#77BBCB"/>
				<stop  offset="0.2499" style="stop-color:#74AFC5"/>
				<stop  offset="0.327" style="stop-color:#709EBD"/>
				<stop  offset="0.4029" style="stop-color:#6B89B2"/>
				<stop  offset="0.4777" style="stop-color:#6671A6"/>
				<stop  offset="0.5517" style="stop-color:#615599"/>
				<stop  offset="0.6234" style="stop-color:#5B318A"/>
				<stop  offset="0.6257" style="stop-color:#5B308A"/>
				<stop  offset="1" style="stop-color:#D21970"/>
			</linearGradient>
			<path class="st22" d="M208.57,200.77c0,4.51,0.69,6.41,2.49,7.69c1.34,0.88,2.45,0.92,3.27,0.92c1.05,0,2.45-0.23,3.6-1.21
				c1.83-1.57,1.83-5.01,1.83-8.38v-3.93c0-4.81,0-5.66-0.07-6.71c-0.07-1.24-0.33-1.8-1.41-2c-0.36-0.07-0.56-0.07-1.21-0.13
				c-0.43,0-0.59-0.13-0.59-0.33c0-0.2,0.16-0.33,0.75-0.33c1.87,0,3.86,0.1,4.38,0.1c0.59,0,2.72-0.1,4.32-0.1
				c0.49,0,0.69,0.1,0.69,0.33c0,0.16-0.13,0.29-0.56,0.33c-0.36,0.03-0.56,0.03-1.01,0.13c-0.88,0.16-1.14,0.65-1.24,2
				c-0.07,1.05-0.1,1.9-0.1,6.71v3.21c0,3.73-0.16,7.75-3.34,10.34c-2.03,1.7-4.58,2.16-6.8,2.16c-2.88,0-5.76-0.43-7.79-2.19
				c-1.73-1.44-3.04-3.83-3.04-8.54v-4.97c0-5.07,0-5.99-0.1-7.03c-0.07-0.92-0.26-1.34-1.01-1.57c-0.36-0.13-1.11-0.2-1.41-0.23
				c-0.49-0.03-0.69-0.16-0.69-0.36c0-0.2,0.26-0.29,0.88-0.29c1.41,0,4.71,0.1,5.01,0.1c0.26,0,4.16-0.1,5.33-0.1
				c0.56,0,0.72,0.1,0.72,0.29c0,0.26-0.16,0.33-0.59,0.36c-0.29,0.03-0.75,0.07-1.08,0.13c-0.92,0.2-1.08,0.88-1.14,1.93
				c-0.07,1.05-0.1,2.58-0.1,6.77V200.77z"/>
			<linearGradient id="SVGID_24_" gradientUnits="userSpaceOnUse" x1="3.2313" y1="198.6467" x2="372.345" y2="198.6467">
				<stop  offset="0" style="stop-color:#79C5CF"/>
				<stop  offset="0.0893" style="stop-color:#79C3CE"/>
				<stop  offset="0.171" style="stop-color:#77BBCB"/>
				<stop  offset="0.2499" style="stop-color:#74AFC5"/>
				<stop  offset="0.327" style="stop-color:#709EBD"/>
				<stop  offset="0.4029" style="stop-color:#6B89B2"/>
				<stop  offset="0.4777" style="stop-color:#6671A6"/>
				<stop  offset="0.5517" style="stop-color:#615599"/>
				<stop  offset="0.6234" style="stop-color:#5B318A"/>
				<stop  offset="0.6257" style="stop-color:#5B308A"/>
				<stop  offset="1" style="stop-color:#D21970"/>
			</linearGradient>
			<path class="st23" d="M252.64,208.63c3.83,0,5.23-0.69,5.79-2.36c0.16-0.43,0.26-0.75,0.33-1.08c0.1-0.39,0.2-0.52,0.39-0.52
				s0.29,0.16,0.29,0.69c0,0.92-0.56,3.83-0.92,4.94c-0.13,0.46-0.26,0.85-0.88,0.85c-5.46,0-10.93-0.16-18.52-0.16
				c-0.33,0-0.59-0.1-0.59-0.33c0-0.26,0.16-0.52,0.56-1.14c4.06-6.38,8.77-13.94,12.89-20.74h-5.56c-2.45,0-3.66,0.16-4.58,0.62
				s-1.5,1.44-1.86,2.72c-0.13,0.39-0.26,0.62-0.46,0.62c-0.23,0-0.26-0.16-0.26-0.59c0-0.62,0.52-4.12,0.69-5.37
				c0.07-0.46,0.2-0.62,0.36-0.62c0.26,0,0.62,0.2,1.34,0.23c3.11,0.13,4.68,0.1,6.38,0.1h10.83c0.33,0,0.49,0.1,0.49,0.33
				s-0.1,0.46-0.39,0.95c-4.22,7.13-8.74,14.49-12.73,20.87H252.64z"/>
		</g>
	</g>
</g>
</svg>
